<svg id="Layer_1" data-name="Layer 1" xmlns="http://www.w3.org/2000/svg" width="392.2807" height="391.4" viewBox="0 0 392.2807 391.4">
  <defs>
    <style>
      .cls-1 {
        fill: #fafafa;
      }

      .cls-2 {
        isolation: isolate;
      }
    </style>
  </defs>
  <title>logo</title>
  <path class="cls-1" d="M1045.0876,207.093l-8.4872-7.6978a.0468.0468,0,0,0-.0782.0347v48.9944a41.4187,41.4187,0,0,1-41.4,41.4h-96.8a41.4187,41.4187,0,0,1-41.4-41.4V199.43a.0468.0468,0,0,0-.0782-.0347l-8.4872,7.6978a.0468.0468,0,0,1-.066-.0032l-20.537-22.531a.0467.0467,0,0,1,.003-.066l118.9339-108.54a.0468.0468,0,0,1,.0631,0l118.9339,108.54a.0467.0467,0,0,1,.0031.066l-20.5371,22.531A.0468.0468,0,0,1,1045.0876,207.093Zm-39.1655-35.6687-59.2684-54.0712a.0468.0468,0,0,0-.0631,0L887.3374,171.41a.047.047,0,0,0-.0153.0346v76.9325a10.979,10.979,0,0,0,10.9468,10.9468h96.7065a10.979,10.979,0,0,0,10.9468-10.9468V171.4243Zm-175.8,78.4212v39.5806a.0468.0468,0,0,1-.0762.0363l-9.5237-7.7381a644.1891,644.1891,0,0,1-72.6-71c-49.4-56.7-74.5-107.6-74.5-151.3V56.6955c0-86.6416,69.6529-158.05,156.2943-158.2707,86.5855-.2208,157.1056,70.2643,157.1056,156.8v4.3c0,3.6687-.1966,7.3373-.4923,11.1034a.0474.0474,0,0,1-.0788.0315l-30.5159-27.923a.0462.0462,0,0,1-.0147-.0294C949.4156-19.9579,897.1418-69.36,833.2714-70.9369c-71.072-1.7546-129.2492,56.41-129.2492,127.5035v2.8577c0,73.8876,95.068,163.27,126.0843,190.3864A.0453.0453,0,0,1,830.1221,249.8455Zm105.4554-21.9212h22.9893a11.4554,11.4554,0,0,0,11.4554-11.4554V193.48a11.4555,11.4555,0,0,0-11.4554-11.4554H935.5775A11.4555,11.4555,0,0,0,924.1221,193.48v22.9892A11.4554,11.4554,0,0,0,935.5775,227.9243Z" transform="translate(-673.4222 101.5757)"/>
  <g class="cls-2">
    <path class="cls-1" d="M798.2734,162.165V111.7158c0-4.3506,2.461-6.8994,6.6358-6.8994h19.16c13.0078,0,21.9727,8.6572,21.9727,21.709,0,13.0078-9.2725,21.709-22.6318,21.709H811.5449V162.165c0,4.3506-2.4609,6.9-6.6357,6.9S798.2734,166.5156,798.2734,162.165ZM820.51,137.8633c7.6025,0,12.041-4.043,12.041-11.294,0-7.207-4.3946-11.25-11.9971-11.25h-9.0088v22.544Z" transform="translate(-673.4222 101.5757)"/>
  </g>
  <g>
    <g class="cls-2">
      <path class="cls-1" d="M793.2734,5.2V-46.6558c0-4.2187,2.461-6.6357,6.68-6.6357,2.7246,0,4.57,1.0986,6.5918,3.8672l27.4219,38.32h.3516V-46.6118c0-4.2627,2.373-6.68,6.372-6.68s6.3282,2.417,6.3282,6.68V5.3755c0,4.1308-2.3291,6.46-6.504,6.46-2.8564,0-4.6142-1.0107-6.6357-3.8232l-27.51-38.54h-.3955V5.2c0,4.2188-2.373,6.6357-6.3281,6.6357C795.6465,11.8354,793.2734,9.4185,793.2734,5.2Z" transform="translate(-673.4222 101.5757)"/>
    </g>
    <g class="cls-2">
      <path class="cls-1" d="M793.2734,5.2V-46.6558c0-4.2187,2.461-6.6357,6.68-6.6357,2.7246,0,4.57,1.0986,6.5918,3.8672l27.4219,38.32h.3516V-46.6118c0-4.2627,2.373-6.68,6.372-6.68s6.3282,2.417,6.3282,6.68V5.3755c0,4.1308-2.3291,6.46-6.504,6.46-2.8564,0-4.6142-1.0107-6.6357-3.8232l-27.51-38.54h-.3955V5.2c0,4.2188-2.373,6.6357-6.3281,6.6357C795.6465,11.8354,793.2734,9.4185,793.2734,5.2Z" transform="translate(-673.4222 101.5757)"/>
    </g>
  </g>
  <g class="cls-2">
    <path class="cls-1" d="M757.0859,81.86V31.499c0-5.3613,3.1641-8.5693,8.5694-8.5693,4.6142,0,7.1631,1.9336,9.0967,6.8555l15.7324,38.9794h.3515l15.6885-38.9794c1.9336-4.878,4.5264-6.8555,9.1846-6.8555,5.3613,0,8.5254,3.1641,8.5254,8.5693V81.86c0,3.9111-2.1973,6.1962-5.9326,6.1962s-5.8887-2.2851-5.8887-6.1962V44.4189h-.3516L796.373,82.7832c-1.1425,2.8125-2.9,4.043-5.6689,4.043a5.6952,5.6952,0,0,1-5.7568-3.9991L769.2588,44.4189h-.3516V81.86c0,3.9111-2.1533,6.1962-5.8886,6.1962S757.0859,85.7715,757.0859,81.86Z" transform="translate(-673.4222 101.5757)"/>
    <path class="cls-1" d="M833.9463,76.1035a10.0622,10.0622,0,0,1-.7031-3.56,5.559,5.559,0,0,1,5.8447-5.8447c2.7246,0,4.5264,1.0547,6.1084,3.8672,2.0654,4.834,7.0312,7.0313,13.0957,7.0313,7.1191,0,11.9531-3.4278,11.9531-8.086,0-4.1748-2.9883-6.5478-10.9424-8.1738L852.5791,60.02c-12.6562-2.5049-18.8525-8.5693-18.8525-18.0175,0-11.6016,10.1074-19.292,24.2138-19.292,11.6016,0,20.3467,4.8779,23.1592,13.14a8.612,8.612,0,0,1,.4834,2.9443c0,3.1641-2.2851,5.3174-5.6689,5.3174-2.9883,0-4.834-1.1865-6.3282-3.9111-2.1093-4.79-6.1963-6.7676-11.6455-6.7676-6.5478,0-10.8984,3.0762-10.8984,7.7344,0,3.9111,3.0322,6.3281,10.5469,7.8223l6.68,1.3623c13.4472,2.6806,19.248,8.0859,19.248,17.71,0,12.3926-9.7119,20.2149-25.5322,20.2149C844.8887,88.2764,836.4951,83.0469,833.9463,76.1035Z" transform="translate(-673.4222 101.5757)"/>
  </g>
</svg>
