<svg id="Layer_1" data-name="Layer 1" xmlns="http://www.w3.org/2000/svg" width="731.2271" height="391.4" viewBox="0 0 731.2271 391.4">
  <defs>
    <style>
      .cls-1 {
        fill: #fafafa;
      }

      .cls-2 {
        isolation: isolate;
      }
    </style>
  </defs>
  <title>logo</title>
  <path class="cls-1" d="M829.8,250v39.7l-9.6-7.8a644.1891,644.1891,0,0,1-72.6-71c-49.4-56.7-74.5-107.6-74.5-151.3V55.3c0-86.4,70.3-156.7,156.7-156.7S986.5-31,986.5,55.4v4.3c0,3.7-.2,7.4-.5,11.2l-30.6-28C949-20.8,895.1-70.8,829.8-70.8c-69.5,0-126.1,56.6-126.1,126.1v4.3C703.7,133.5,798.8,222.9,829.8,250Zm94-21.9h45.9V182.2H923.8Zm121-20.8-8.6-7.8v49.1A41.4187,41.4187,0,0,1,994.8,290H898a41.4187,41.4187,0,0,1-41.4-41.4V199.5l-8.6,7.8-20.6-22.6,119-108.6,119,108.6Zm-39.2-35.7-59.3-54.1L887,171.6v77a10.9256,10.9256,0,0,0,10.9,10.9h96.8a10.9256,10.9256,0,0,0,10.9-10.9v-77Z" transform="translate(-673.1 101.4)"/>
  <g class="cls-2">
    <path class="cls-1" d="M1010.58,111.7725V64.126c0-4.1084,2.3242-6.5166,6.2676-6.5166h18.0957c12.2851,0,20.7519,8.1767,20.7519,20.5039,0,12.2851-8.7578,20.5019-21.375,20.5019h-11.206v13.1573c0,4.1084-2.3243,6.5166-6.2666,6.5166S1010.58,115.8809,1010.58,111.7725Zm21.001-22.9522c7.1806,0,11.372-3.8183,11.372-10.666,0-6.8066-4.15-10.625-11.33-10.625h-8.5087V88.82Z" transform="translate(-673.1 101.4)"/>
    <path class="cls-1" d="M1062.0449,112.0625V78.1953c0-3.8594,2.3662-6.1006,5.8526-6.1006,3.4033,0,5.7275,2.2412,5.7275,6.1006v2.9063h.249c1.1621-5.52,4.8145-8.7989,9.2549-8.7989a5.6976,5.6976,0,0,1,3.7773,1.12q1.7433,1.3695,1.7432,4.4824a5.4243,5.4243,0,0,1-1.7432,4.3584,8.1361,8.1361,0,0,1-5.2714,1.5761c-5.52.084-7.4707,3.1963-7.4707,8.4668v19.7559c0,4.0264-2.3653,6.3086-6.06,6.3086C1064.4521,118.3711,1062.0449,116.0889,1062.0449,112.0625Z" transform="translate(-673.1 101.4)"/>
    <path class="cls-1" d="M1089.8945,95.2129c0-14.4024,8.7159-23.16,22.0381-23.16s22.0381,8.7168,22.0381,23.16c0,14.65-8.5908,23.2422-22.0381,23.2422S1089.8945,109.8223,1089.8945,95.2129Zm31.75.041c0-8.84-3.8183-13.9453-9.7119-13.9453s-9.7529,5.1055-9.7529,13.9453c0,8.9238,3.7764,13.9453,9.7529,13.9453C1117.8672,109.1992,1121.6445,104.1777,1121.6445,95.2539Z" transform="translate(-673.1 101.4)"/>
    <path class="cls-1" d="M1140.1973,127.0459V78.32c0-4.0674,2.49-6.2256,5.9765-6.2256s5.9766,2.1582,5.9766,6.2666V80.77h.248c2.4082-5.23,7.3467-8.4668,13.7793-8.4668,11.2891,0,18.2207,8.5909,18.2207,22.9512,0,14.3184-6.89,22.9512-18.0127,22.9512-6.4746,0-11.455-3.1543-13.8212-8.1758h-.2481v17.0166c0,4.15-2.49,6.3086-6.06,6.3086C1142.7285,133.3545,1140.1973,131.1963,1140.1973,127.0459Zm31.791-31.792c0-8.0518-3.8184-13.24-9.877-13.24-5.9355,0-9.8369,5.2715-9.8369,13.24,0,8.0518,3.9014,13.1982,9.8369,13.1982C1168.17,108.4521,1171.9883,103.3477,1171.9883,95.2539Z" transform="translate(-673.1 101.4)"/>
    <path class="cls-1" d="M1189.0059,95.4609c0-14.3183,8.3418-23.4082,21.499-23.4082,12.6172,0,21.084,8.6328,21.084,20.711,0,3.3613-1.9092,5.2715-5.27,5.2715h-25.4v.539c0,6.6,3.9843,10.916,10.1269,10.916,4.44,0,7.3457-1.4941,10.625-5.3545a4.9327,4.9327,0,0,1,3.9424-1.7841c2.6143,0,4.7315,1.66,4.7315,4.44a6.2379,6.2379,0,0,1-.83,2.9463c-2.9473,5.4785-9.836,8.7168-18.4278,8.7168C1197.1816,118.4551,1189.0059,109.8633,1189.0059,95.4609Zm30.92-4.8554c-.2481-5.8106-3.9844-9.5879-9.2969-9.5879s-9.1719,3.9023-9.5869,9.5879Z" transform="translate(-673.1 101.4)"/>
    <path class="cls-1" d="M1237.8145,112.0625V78.1953c0-3.8594,2.3652-6.1006,5.8515-6.1006,3.4033,0,5.7276,2.2412,5.7276,6.1006v2.9063h.249c1.1621-5.52,4.8144-8.7989,9.2558-8.7989a5.6968,5.6968,0,0,1,3.7764,1.12q1.7432,1.3695,1.7432,4.4824a5.4246,5.4246,0,0,1-1.7432,4.3584,8.1353,8.1353,0,0,1-5.2705,1.5761c-5.52.084-7.4707,3.1963-7.4707,8.4668v19.7559c0,4.0264-2.3662,6.3086-6.0606,6.3086C1240.2207,118.3711,1237.8145,116.0889,1237.8145,112.0625Z" transform="translate(-673.1 101.4)"/>
    <path class="cls-1" d="M1271.9707,82.1387h-2.3242c-2.8633,0-4.6895-1.7432-4.6895-4.5655s1.8262-4.5654,4.6895-4.5654h2.3242V68.0684c0-3.9,2.2832-6.3086,6.06-6.3086s6.0586,2.4082,6.0586,6.3086v4.9394h4.2754a4.5662,4.5662,0,1,1,0,9.1309H1284.09V103.43c0,3.1543,1.08,4.4824,3.6944,4.69l.7881.083c2.9882.3321,4.6074,1.5772,4.6074,4.3994,0,3.5694-3.4863,5.3955-8.5918,5.3955h-.4141c-8.0937,0-12.2031-4.0253-12.2031-11.87Z" transform="translate(-673.1 101.4)"/>
    <path class="cls-1" d="M1298.7412,61.2207a6.478,6.478,0,1,1,6.4746,6.2676A6.2847,6.2847,0,0,1,1298.7412,61.2207Zm.415,50.8418V78.4453c0-3.9433,2.2833-6.3506,6.06-6.3506,3.7354,0,6.06,2.4073,6.06,6.3506v33.6172c0,3.9434-2.3242,6.3086-6.06,6.3086C1301.44,118.3711,1299.1562,116.0059,1299.1562,112.0625Z" transform="translate(-673.1 101.4)"/>
    <path class="cls-1" d="M1317.709,95.4609c0-14.3183,8.3418-23.4082,21.499-23.4082,12.6172,0,21.084,8.6328,21.084,20.711,0,3.3613-1.9092,5.2715-5.27,5.2715h-25.4v.539c0,6.6,3.9844,10.916,10.1269,10.916,4.44,0,7.3458-1.4941,10.625-5.3545a4.9327,4.9327,0,0,1,3.9424-1.7841c2.6143,0,4.7315,1.66,4.7315,4.44a6.2368,6.2368,0,0,1-.83,2.9463c-2.9473,5.4785-9.8359,8.7168-18.4277,8.7168C1325.8848,118.4551,1317.709,109.8633,1317.709,95.4609Zm30.92-4.8554c-.248-5.8106-3.9844-9.5879-9.2969-9.5879s-9.1718,3.9023-9.5869,9.5879Z" transform="translate(-673.1 101.4)"/>
    <path class="cls-1" d="M1365.5215,109.5723a6.7194,6.7194,0,0,1-.457-2.24,4.58,4.58,0,0,1,4.8974-4.6484c1.95,0,3.61.8711,5.2705,2.7383,2.3662,3.1133,5.1055,4.5244,9.7129,4.5244,4.3985,0,7.2627-1.8262,7.2627-4.7725,0-2.4082-1.5361-3.6943-5.8935-4.6484l-7.4707-1.5781c-8.7159-1.8672-13.1153-6.3086-13.1153-12.9073,0-8.5088,7.3457-13.9873,18.8848-13.9873,9.2129,0,15.9785,4.1924,17.4316,9.2149a6.9491,6.9491,0,0,1,.29,1.7842c0,2.4482-1.5362,4.15-4.6485,4.15a5.7789,5.7789,0,0,1-4.3994-1.8681c-2.1172-2.6973-4.5234-4.7725-8.8818-4.7725-4.1084,0-6.9727,1.95-6.9727,4.8145,0,2.3242,1.7432,3.86,6.1846,4.8144l7.3457,1.5772c9.4629,1.9922,13.3642,5.4785,13.3642,12.1191,0,8.84-7.9267,14.5684-19.6728,14.5684C1374.4443,118.4551,1367.6377,114.8027,1365.5215,109.5723Z" transform="translate(-673.1 101.4)"/>
  </g>
  <g>
    <path class="cls-1" d="M1011.5811,20.5215V-28.4531c0-3.9844,2.3242-6.2671,6.3085-6.2671,2.5733,0,4.3165,1.0376,6.2256,3.6523l25.8985,36.1914h.332V-28.4116c0-4.0259,2.2412-6.3086,6.0186-6.3086s5.9765,2.2827,5.9765,6.3086V20.6875c0,3.9014-2.2,6.1011-6.1426,6.1011-2.6982,0-4.3584-.9546-6.2675-3.6109l-25.9815-36.3989h-.374V20.5215c0,3.9844-2.24,6.2671-5.9766,6.2671C1013.8223,26.7886,1011.5811,24.5059,1011.5811,20.5215Z" transform="translate(-673.1 101.4)"/>
    <path class="cls-1" d="M1069.6455,3.7124c0-14.4019,8.7158-23.1592,22.0391-23.1592s22.0381,8.7158,22.0381,23.1592c0,14.6509-8.5909,23.2422-22.0381,23.2422S1069.6455,18.3218,1069.6455,3.7124Zm31.75.0415c0-8.84-3.8184-13.9453-9.7109-13.9453-5.8946,0-9.7539,5.105-9.7539,13.9453,0,8.9233,3.7773,13.9453,9.7539,13.9453C1097.6191,17.6992,1101.3955,12.6772,1101.3955,3.7539Z" transform="translate(-673.1 101.4)"/>
    <path class="cls-1" d="M1119.9482,20.563V-13.3042c0-3.86,2.3653-6.1011,5.8516-6.1011,3.4033,0,5.7275,2.2412,5.7275,6.1011v2.9053h.2491c1.1621-5.52,4.8144-8.7989,9.2558-8.7989a5.6969,5.6969,0,0,1,3.7764,1.1207q1.7432,1.37,1.7432,4.4824a5.4235,5.4235,0,0,1-1.7432,4.3579,8.1382,8.1382,0,0,1-5.2705,1.5771c-5.5205.083-7.4707,3.1958-7.4707,8.4668V20.563c0,4.0259-2.3662,6.3086-6.0606,6.3086C1122.3545,26.8716,1119.9482,24.5889,1119.9482,20.563Z" transform="translate(-673.1 101.4)"/>
    <path class="cls-1" d="M1154.1045-9.3613H1151.78c-2.8633,0-4.6895-1.7432-4.6895-4.5655s1.8262-4.5654,4.6895-4.5654h2.3242v-4.939c0-3.9013,2.2832-6.3085,6.0605-6.3085s6.0586,2.4072,6.0586,6.3085v4.939h4.2754a4.2942,4.2942,0,0,1,4.6485,4.5654,4.2942,4.2942,0,0,1-4.6485,4.5655h-4.2754V11.93c0,3.1543,1.08,4.4824,3.6944,4.69l.7881.083c2.9882.3321,4.6074,1.5772,4.6074,4.3994,0,3.5694-3.4864,5.3955-8.5918,5.3955h-.4141c-8.0937,0-12.2031-4.0258-12.2031-11.87Z" transform="translate(-673.1 101.4)"/>
    <path class="cls-1" d="M1181.373,20.563V-28.5776c0-3.9014,2.2413-6.2256,5.9766-6.2256s5.9346,2.3242,5.9346,6.2256v18.0127h.25c2.3652-5.6031,7.2207-8.7574,13.9863-8.7574,9.8779,0,15.5225,6.3916,15.5225,16.6846V20.563c0,4.15-2.49,6.3086-6.06,6.3086-3.5273,0-6.06-2.1582-6.06-6.3086V-.0645c0-5.7275-2.8222-9.2138-8.3427-9.2138-5.7266,0-9.0889,4.0259-9.0889,9.8779V20.563c0,4.15-2.49,6.3086-6.06,6.3086C1183.9053,26.8716,1181.373,24.7134,1181.373,20.563Z" transform="translate(-673.1 101.4)"/>
  </g>
  <g>
    <path class="cls-1" d="M1289.57,20.9365V-26.627c0-5.0634,2.9883-8.0932,8.0938-8.0932,4.3574,0,6.7646,1.8262,8.5908,6.4746l14.8584,36.814h.332l14.8164-36.814c1.8262-4.6069,4.2754-6.4746,8.6748-6.4746,5.0635,0,8.0518,2.9883,8.0518,8.0932V20.9365c0,3.6939-2.0752,5.8521-5.6035,5.8521s-5.5606-2.1582-5.5606-5.8521V-14.4248h-.332l-14.8174,36.2329c-1.0791,2.6563-2.7393,3.8184-5.3545,3.8184a5.3787,5.3787,0,0,1-5.4365-3.7769l-14.8174-36.2744h-.332V20.9365c0,3.6939-2.0332,5.8521-5.5606,5.8521S1289.57,24.63,1289.57,20.9365Z" transform="translate(-673.1 101.4)"/>
    <path class="cls-1" d="M1360.916,18.0728a6.7271,6.7271,0,0,1-.457-2.2413,4.58,4.58,0,0,1,4.8974-4.6484c1.95,0,3.61.8716,5.2706,2.7393,2.3662,3.1128,5.1054,4.5239,9.7128,4.5239,4.3985,0,7.2627-1.8262,7.2627-4.773,0-2.4072-1.5361-3.6938-5.8935-4.6484l-7.4707-1.5771C1365.5225,5.58,1361.123,1.1392,1361.123-5.46c0-8.5083,7.3458-13.9868,18.8848-13.9868,9.2129,0,15.9785,4.1919,17.4317,9.2139a6.9559,6.9559,0,0,1,.29,1.7847c0,2.4487-1.5361,4.15-4.6484,4.15a5.78,5.78,0,0,1-4.4-1.8676c-2.1171-2.6978-4.5234-4.773-8.8818-4.773-4.1084,0-6.9727,1.9507-6.9727,4.8145,0,2.3242,1.7432,3.86,6.1846,4.8144l7.3457,1.5772c9.4629,1.9922,13.3643,5.4785,13.3643,12.1191,0,8.84-7.9268,14.5679-19.6729,14.5679C1369.8389,26.9546,1363.0322,23.3022,1360.916,18.0728Z" transform="translate(-673.1 101.4)"/>
  </g>
  <circle class="cls-1" cx="156.7" cy="142.4" r="29.8"/>
</svg>
